<?xml version="1.0" encoding="UTF-8" standalone="no"?>
<svg
   xmlns:dc="http://purl.org/dc/elements/1.1/"
   xmlns:cc="http://creativecommons.org/ns#"
   xmlns:rdf="http://www.w3.org/1999/02/22-rdf-syntax-ns#"
   xmlns:svg="http://www.w3.org/2000/svg"
   xmlns="http://www.w3.org/2000/svg"
   version="1.1"
   id="svg2"
   viewBox="0 0 21.833711 5.3923"
   height="1.5218269mm"
   width="6.1619582mm">
  <defs
     id="defs4" />
  <metadata
     id="metadata7">
    <rdf:RDF>
      <cc:Work
         rdf:about="">
        <dc:format>image/svg+xml</dc:format>
        <dc:type
           rdf:resource="http://purl.org/dc/dcmitype/StillImage" />
        <dc:title></dc:title>
      </cc:Work>
    </rdf:RDF>
  </metadata>
  <g
     transform="translate(-208.21051,-370.26795)"
     id="layer1">
    <g
       id="text4136"
       style="font-style:normal;font-weight:normal;font-size:40px;line-height:125%;font-family:sans-serif;letter-spacing:0px;word-spacing:0px;fill:#000000;fill-opacity:1;stroke:none;stroke-width:1px;stroke-linecap:butt;stroke-linejoin:miter;stroke-opacity:1">
      <path
         id="path4141"
         d="m 213.21097,374.98798 -0.001,-0.15866 -0.0389,-0.15334 -0.064,-0.024 -0.12658,0.14791 -0.14781,0.12632 -0.16561,0.10177 -0.13877,0.0685 -0.14717,0.0477 -0.15406,0.0118 -0.13828,-0.0189 -0.13372,-0.0371 -0.0827,-0.0924 -0.0214,-0.12365 0.0128,-0.14608 0.0291,-0.14412 0.0381,-0.1418 0.0552,-0.17099 0.0575,-0.17012 0.0591,-0.1697 0.0601,-0.16919 0.0652,-0.17144 0.0659,-0.17083 0.0666,-0.17082 0.067,-0.17029 0.0675,-0.17043 0.0679,-0.17019 0.0616,-0.15226 0.0619,-0.15206 0.0624,-0.15225 0.0628,-0.15194 0.0633,-0.15149 0.0692,-0.15471 0.0693,-0.15472 0.0694,-0.15457 0.048,-0.168 -0.0768,-0.15774 -0.17116,-0.0583 -0.18825,-0.007 -0.17795,0.0581 -0.1218,0.14129 -0.0888,0.1732 -0.0893,0.17323 -0.0897,0.17298 -0.0901,0.17259 -0.0906,0.17223 -0.0913,0.17199 -0.0922,0.17178 -0.0879,0.16302 -0.0896,0.1616 -0.0921,0.16048 -0.0951,0.15866 -0.0992,0.15624 -0.10344,0.15701 -0.10582,0.15537 -0.10872,0.15376 -0.11181,0.15153 -0.11526,0.14866 -0.11936,0.14527 -0.12433,0.14108 -0.13036,0.13564 -0.13781,0.12826 -0.14702,0.11754 -0.15865,0.10125 -0.17227,0.0745 -0.18515,0.0301 -0.176,-0.032 -0.13604,-0.0682 -0.10375,-0.11085 -0.0565,-0.1413 -0.0157,-0.15168 0.0176,-0.18672 0.0435,-0.18255 0.0602,-0.17761 0.0718,-0.1734 0.0802,-0.16956 0.0866,-0.16616 0.0914,-0.16274 0.0958,-0.16019 0.10079,-0.15707 0.0971,-0.13388 0.10123,-0.13092 0.10569,-0.1272 0.12894,-0.14283 0.13133,-0.14027 0.13424,-0.13782 0.13701,-0.13474 0.14025,-0.13161 0.14351,-0.12785 0.14704,-0.1237 0.15106,-0.11917 0.15503,-0.11373 0.15932,-0.10757 0.16384,-0.1005 0.16873,-0.0924 0.17357,-0.0829 0.17829,-0.072 0.18287,-0.0593 0.18683,-0.0449 0.19014,-0.0287 0.1826,-0.0306 0.1374,-0.10538 -0.0481,-0.10395 -0.0639,-0.096 -0.14546,-0.13434 -0.19054,-0.0497 -0.18289,0.009 -0.18146,0.0259 -0.17884,0.0393 -0.17623,0.0504 -0.17337,0.0595 -0.17071,0.0672 -0.16804,0.0736 -0.1654,0.079 -0.16306,0.0838 -0.16277,0.0894 -0.16001,0.0941 -0.15709,0.099 -0.1538,0.10375 -0.15061,0.10883 -0.14671,0.11364 -0.14275,0.11855 -0.13855,0.12344 -0.13432,0.12849 -0.12944,0.13305 -0.12463,0.13777 -0.11932,0.14201 -0.12089,0.15264 -0.11719,0.15551 -0.11309,0.15861 -0.10831,0.16163 -0.10314,0.16513 -0.0972,0.16869 -0.0904,0.17225 -0.0828,0.17631 -0.0739,0.17992 -0.064,0.18398 -0.0524,0.18746 -0.0394,0.19062 -0.0247,0.19298 -0.009,0.19427 0.0105,0.19269 0.036,0.18953 0.069,0.17975 0.1077,0.15918 0.14472,0.12685 0.14348,0.0823 0.15393,0.0609 0.16152,0.0368 0.16507,0.012 0.18705,-0.0149 0.18302,-0.0421 0.17655,-0.0647 0.16863,-0.0824 0.16139,-0.0966 0.1541,-0.10756 0.14748,-0.11626 0.14178,-0.12346 0.13197,-0.1237 0.12728,-0.12838 0.12205,-0.13312 0.11648,-0.13815 0.11037,-0.14324 0.10362,-0.14828 0.0962,-0.15313 0.056,-0.048 0.016,0.088 -0.0735,0.17429 -0.0672,0.1768 -0.0592,0.17978 -0.0486,0.18275 -0.0341,0.18572 -0.0134,0.18866 0.01,0.11698 0.0462,0.10702 0.14628,0.10903 0.17143,0.0643 0.17985,0.0359 0.18268,0.0176 0.18376,0.005 0.17248,-0.005 0.17152,-0.0189 0.17426,-0.0428 0.16839,-0.0623 0.15942,-0.0823 0.14794,-0.10171 0.13399,-0.1189 0.056,-0.176 0,0"
         style="font-style:normal;font-variant:normal;font-weight:normal;font-stretch:normal;font-family:'Marketing Script';-inkscape-font-specification:'Marketing Script'" />
      <path
         id="path4143"
         d="m 216.51872,374.98798 -0.001,-0.15866 -0.0389,-0.15334 -0.064,-0.024 -0.12642,0.14764 -0.14925,0.12462 -0.16433,0.10374 -0.12446,0.0647 -0.1301,0.0519 -0.13744,0.0274 -0.19237,0.006 -0.19163,-0.0144 -0.162,-0.094 -0.022,-0.186 0.0371,-0.12879 0.0428,-0.12721 0.0644,-0.16617 0.0669,-0.16512 0.0686,-0.16471 0.0606,-0.14879 0.0597,-0.14931 0.058,-0.1495 0.0554,-0.15082 0.0464,-0.15358 -0.016,-0.19 -0.112,-0.154 -0.12358,-0.0871 -0.12908,-0.0783 -0.13134,-0.0746 -0.11825,-0.0631 -0.12175,-0.0569 -0.152,-0.072 -0.072,-0.056 0,-0.072 0.0302,-0.10208 0.01,-0.10592 -0.0413,-0.18923 -0.11808,-0.15079 -0.18458,-0.052 -0.17344,0.0276 -0.14329,0.10013 -0.0906,0.15073 -0.0487,0.16954 -0.016,0.08 0,0.072 0.0122,0.10279 0.0358,0.0972 0.056,0.144 -0.008,0.024 -0.008,0.04 -0.0537,0.18127 -0.0599,0.1793 -0.0657,0.17697 -0.0711,0.17484 -0.0763,0.17274 -0.0813,0.17088 -0.0898,0.17796 -0.0945,0.17553 -0.10158,0.1715 -0.11409,0.16301 -0.11392,0.12625 -0.11842,0.12174 -0.12766,0.11201 -0.14478,0.0856 -0.15657,0.0623 -0.16265,0.0441 -0.032,0.08 0.0134,0.13517 0.0426,0.12883 0.072,0.048 0.17884,-0.0411 0.17175,-0.0648 0.16214,-0.086 0.15127,-0.10413 0.14733,-0.13029 0.13841,-0.13996 0.12921,-0.14867 0.11972,-0.1561 0.11062,-0.16289 0.10159,-0.16848 0.0931,-0.17361 0.0564,-0.13165 0.0556,-0.13235 0.061,-0.15044 0.0608,-0.15021 0.0608,-0.1504 0.0607,-0.15043 0.0607,-0.15052 0.104,-0.072 0.119,0.07 0.11161,0.0814 0.0894,0.10461 0.0279,0.1085 -0.0279,0.1075 -0.0728,0.1507 -0.0617,0.15579 -0.0575,0.15751 -0.0531,0.14318 -0.0508,0.14393 -0.0481,0.14489 -0.0508,0.19113 -0.0452,0.19287 -0.024,0.192 0.0229,0.15464 0.0726,0.13822 0.11283,0.10833 0.13562,0.0788 0.17305,0.0568 0.18037,0.0274 0.18229,0.007 0.18219,-0.007 0.18142,-0.0179 0.18068,-0.0262 0.17626,-0.0361 0.16906,-0.0616 0.15871,-0.085 0.14644,-0.10479 0.13353,-0.12055 0.056,-0.176 0,0"
         style="font-style:normal;font-variant:normal;font-weight:normal;font-stretch:normal;font-family:'Marketing Script';-inkscape-font-specification:'Marketing Script'" />
      <path
         id="path4224"
         d="m 218.41522,370.93998 0.0493,-0.12769 0.0147,-0.13631 -0.0274,-0.16084 -0.091,-0.13509 -0.13763,-0.0881 -0.152,-0.024 -0.16695,0.018 -0.15203,0.0688 -0.10502,0.12915 -0.0789,0.1814 -0.0331,0.1946 0.0297,0.15325 0.093,0.12494 0.1333,0.0818 0.168,0.032 0.18649,-0.0432 0.15338,-0.11542 0.11613,-0.15338 0,0"
         style="font-style:normal;font-variant:normal;font-weight:normal;font-stretch:normal;font-family:'Marketing Script';-inkscape-font-specification:'Marketing Script'" />
      <path
         id="path4145"
         d="m 218.70322,374.98798 -10e-4,-0.15867 -0.0389,-0.15333 -0.064,-0.024 -0.0897,0.10982 -0.10231,0.0982 -0.12115,0.0881 -0.12685,0.0799 -0.1234,0.0674 -0.13037,0.0528 -0.13823,0.0238 -0.15058,-0.005 -0.1495,-0.0182 -0.1452,-0.0389 -0.13072,-0.0739 -0.056,-0.152 0.0235,-0.15349 0.0405,-0.15051 0.0583,-0.17046 0.0579,-0.17032 0.0575,-0.17053 0.0572,-0.17075 0.0568,-0.17106 0.0563,-0.17088 0.0617,-0.18746 0.0619,-0.18718 0.0624,-0.1872 0.0628,-0.1873 0.0632,-0.18686 -0.032,-0.184 -0.112,-0.104 -0.18894,-0.0308 -0.19158,0.007 -0.18748,0.0396 -0.12397,0.0938 -0.06,0.14615 -0.0533,0.1705 -0.0534,0.17075 -0.0534,0.17075 -0.049,0.171 -0.0507,0.17083 -0.0523,0.17017 -0.0542,0.18331 -0.0531,0.18383 -0.0515,0.1841 -0.0492,0.18476 -0.0404,0.17931 -0.0316,0.18069 0.003,0.12425 0.0126,0.12375 0.0177,0.0989 0.0383,0.0931 0.112,0.16 0.0931,0.0835 0.0989,0.0765 0.16662,0.0751 0.1793,0.0382 0.18261,0.0178 0.18347,0.005 0.10393,-0.002 0.10407,-0.006 0.10044,-0.01 0.0996,-0.0142 0.1753,-0.0395 0.16874,-0.0619 0.15887,-0.0835 0.14706,-0.10314 0.13403,-0.12 0.056,-0.176 0,0"
         style="font-style:normal;font-variant:normal;font-weight:normal;font-stretch:normal;font-family:'Marketing Script';-inkscape-font-specification:'Marketing Script'" />
      <path
         id="path4220"
         d="m 218.55735,373.64335 -0.006,0.0176 -0.0488,0.17031 -0.0363,0.17266 -0.023,0.17539 -0.008,0.17656 0.0102,0.18633 0.0324,0.18359 0.0582,0.17734 0.0855,0.16563 0.11172,0.14922 0.13398,0.13008 0.1625,0.10429 0.17813,0.075 0.18633,0.052 0.19023,0.0351 0.1918,0.0223 0.19336,0.0117 0.19375,0.004 0.19882,-0.004 0.19883,-0.0121 0.19766,-0.0223 0.19648,-0.0336 0.17539,-0.0426 0.16836,-0.0641 0.15899,-0.0848 0.14726,-0.10429 0.13399,-0.12032 0.0563,-0.17617 -0.001,-0.15859 -0.0391,-0.15313 -0.0641,-0.0242 -0.10703,0.13047 -0.12148,0.11797 -0.13555,0.10039 -0.14922,0.0797 -0.16015,0.0547 -0.16641,0.0289 -0.18828,0.0141 -0.18906,0.005 -0.18946,-0.007 -0.18789,-0.0223 -0.18398,-0.0437 -0.17344,-0.0746 -0.0957,-0.0801 0.0398,-0.048 0.15508,-0.12031 0.14883,-0.12734 0.11054,-0.10313 0.10625,-0.10703 0.10313,-0.11016 0.12383,-0.13828 0.11718,-0.14375 0.10899,-0.15 0.0969,-0.1582 0.05,-0.10625 -0.55468,0 -0.0219,0.0406 -0.10547,0.16289 -0.11992,0.15312 -0.13242,0.14141 -0.14375,0.13086 -0.15352,0.11914 -0.16093,0.10859 -0.13321,0.004 -0.0269,-0.14805 0.0152,-0.18711 0.0394,-0.18359 0.0563,-0.17891 0.0633,-0.16289 -0.86757,0 z"
         style="font-style:normal;font-variant:normal;font-weight:normal;font-stretch:normal;font-family:'Marketing Script';-inkscape-font-specification:'Marketing Script'" />
      <path
         id="path4147"
         d="m 218.55735,373.64335 0.86758,0 0.005,-0.0121 0.077,-0.1711 0.0801,-0.14414 0.10156,-0.12968 0.12266,-0.11016 0.16875,-0.10469 0.19102,-0.0476 0.13125,0.0316 0.0816,0.10586 0.0191,0.13476 -0.0285,0.17188 -0.0645,0.1625 -0.0609,0.11289 0.55469,0 0.0289,-0.0613 0.0504,-0.17813 0.0176,-0.13554 0.006,-0.13633 -0.0145,-0.19258 -0.0504,-0.18594 -0.0945,-0.16758 -0.13711,-0.13476 -0.16719,-0.0953 -0.16093,-0.0449 -0.16719,-0.0109 -0.18594,0.0125 -0.18242,0.0371 -0.17578,0.0609 -0.16797,0.0816 -0.16172,0.10078 -0.14726,0.1207 -0.13086,0.13907 -0.11289,0.1539 -0.0953,0.16524 -0.0762,0.15976 -0.0684,0.16289 -0.0527,0.14883 z"
         style="font-style:normal;font-variant:normal;font-weight:normal;font-stretch:normal;font-family:'Marketing Script';-inkscape-font-specification:'Marketing Script'" />
      <path
         id="path4149"
         d="m 223.88847,374.98798 -0.001,-0.15866 -0.0389,-0.15334 -0.064,-0.024 -0.0897,0.10983 -0.10231,0.0982 -0.12115,0.0881 -0.12685,0.0799 -0.12341,0.0674 -0.13037,0.0528 -0.13822,0.0238 -0.1884,-0.006 -0.18684,-0.0267 -0.16876,-0.0789 -0.056,-0.16 0.0207,-0.15709 0.0353,-0.15491 0.042,-0.18069 0.0449,-0.17994 0.0473,-0.17924 0.0493,-0.17879 0.051,-0.17828 0.0525,-0.17816 0.0537,-0.17754 0.0549,-0.17727 0.0558,-0.17685 0.0568,-0.17667 0.0576,-0.17653 0.0583,-0.17604 0.0781,-0.17095 0.0899,-0.16505 0.11233,-0.15613 0.10553,-0.16064 0.0979,-0.16541 0.0892,-0.17042 0.0793,-0.17543 0.0679,-0.17997 0.035,-0.14237 0.013,-0.14563 -0.025,-0.18632 -0.087,-0.16568 -0.11788,-0.11075 -0.15412,-0.0493 -0.18344,0.0129 -0.16929,0.0714 -0.14112,0.11826 -0.11244,0.14634 -0.0894,0.16133 -0.0723,0.16973 -0.0706,0.18417 -0.0675,0.18564 -0.0647,0.18659 -0.0624,0.18728 -0.0605,0.18799 -0.0587,0.1884 -0.0572,0.18894 -0.0558,0.18933 -0.0546,0.18966 -0.0536,0.1912 -0.0523,0.19158 -0.0508,0.19215 -0.0489,0.19225 -0.0469,0.19299 -0.0443,0.19349 -0.0412,0.19409 -0.0373,0.19514 -0.0321,0.19616 -0.0246,0.19695 -0.008,0.168 -0.008,0.128 0.0162,0.17832 0.0566,0.16981 0.10388,0.14509 0.14328,0.10678 0.14396,0.054 0.14979,0.0342 0.15275,0.0183 0.1535,0.005 0.16099,-0.006 0.16018,-0.0165 0.15883,-0.0256 0.1753,-0.0395 0.16874,-0.0619 0.15887,-0.0835 0.14705,-0.10314 0.13404,-0.12 0.056,-0.176 0,0"
         style="font-style:normal;font-variant:normal;font-weight:normal;font-stretch:normal;font-family:'Marketing Script';-inkscape-font-specification:'Marketing Script'" />
      <path
         id="path4151"
         d="m 225.98222,374.98798 -0.001,-0.15866 -0.0389,-0.15334 -0.064,-0.024 -0.0897,0.10983 -0.10231,0.0982 -0.12115,0.0881 -0.12685,0.0799 -0.12341,0.0674 -0.13037,0.0528 -0.13822,0.0238 -0.1884,-0.006 -0.18684,-0.0267 -0.16876,-0.0789 -0.056,-0.16 0.0207,-0.15709 0.0353,-0.15491 0.042,-0.18069 0.0449,-0.17994 0.0473,-0.17924 0.0493,-0.17879 0.051,-0.17828 0.0525,-0.17816 0.0537,-0.17754 0.0549,-0.17727 0.0558,-0.17685 0.0568,-0.17667 0.0576,-0.17653 0.0583,-0.17604 0.0781,-0.17095 0.0899,-0.16505 0.11233,-0.15613 0.10553,-0.16064 0.0979,-0.16541 0.0892,-0.17042 0.0793,-0.17543 0.0679,-0.17997 0.035,-0.14237 0.013,-0.14563 -0.025,-0.18632 -0.087,-0.16568 -0.11788,-0.11075 -0.15412,-0.0493 -0.18344,0.0129 -0.16929,0.0714 -0.14112,0.11826 -0.11244,0.14634 -0.0894,0.16133 -0.0723,0.16973 -0.0706,0.18417 -0.0675,0.18564 -0.0647,0.18659 -0.0624,0.18728 -0.0605,0.18799 -0.0587,0.1884 -0.0572,0.18894 -0.0558,0.18933 -0.0546,0.18966 -0.0536,0.1912 -0.0523,0.19158 -0.0508,0.19215 -0.0489,0.19225 -0.0469,0.19299 -0.0443,0.19349 -0.0412,0.19409 -0.0373,0.19514 -0.0321,0.19616 -0.0246,0.19695 -0.008,0.168 -0.008,0.128 0.0162,0.17832 0.0566,0.16981 0.10388,0.14509 0.14328,0.10678 0.14396,0.054 0.14979,0.0342 0.15275,0.0183 0.1535,0.005 0.16099,-0.006 0.16018,-0.0165 0.15883,-0.0256 0.1753,-0.0395 0.16874,-0.0619 0.15887,-0.0835 0.14705,-0.10314 0.13404,-0.12 0.056,-0.176 0,0"
         style="font-style:normal;font-variant:normal;font-weight:normal;font-stretch:normal;font-family:'Marketing Script';-inkscape-font-specification:'Marketing Script'" />
      <path
         id="path4215"
         d="m 225.92571,373.76288 -0.0168,0.034 -0.0769,0.18164 -0.0641,0.18672 -0.0492,0.19102 -0.0316,0.19453 -0.0109,0.19726 0.0117,0.175 0.0387,0.17071 0.0707,0.16054 0.10274,0.1418 0.12344,0.11875 0.14882,0.0844 0.16485,0.0469 0.17109,0.0141 0.19141,-0.0219 0.18359,-0.0594 0.17188,-0.0879 0.15976,-0.1082 0.14922,-0.12266 0.12344,-0.11719 0.11601,-0.12383 0.10469,-0.13359 0.0879,-0.1457 0.0399,-0.0559 0.048,-0.016 0,0.048 -0.0414,0.17422 -0.0227,0.17774 0.0223,0.15 0.0699,0.13515 0.10781,0.10704 0.18008,0.0805 0.19336,0.0399 0.19687,0.0184 0.19766,0.005 0.1082,-0.002 0.10781,-0.006 0.10039,-0.01 0.0996,-0.0145 0.17539,-0.0395 0.16875,-0.0617 0.15899,-0.0836 0.14687,-0.10312 0.13399,-0.11992 0.0563,-0.17618 -0.001,-0.15859 -0.0391,-0.15313 -0.0641,-0.0242 -0.0894,0.10976 -0.10234,0.0984 -0.1211,0.0879 -0.12695,0.0801 -0.12344,0.0672 -0.13047,0.0527 -0.13789,0.0238 -0.1875,-0.008 -0.18476,-0.0332 -0.16407,-0.0867 -0.0558,-0.16016 0.0172,-0.14219 0.0387,-0.13789 0.0445,-0.13086 0.0453,-0.13047 0.0465,-0.13047 0.0691,-0.17695 0.0723,-0.17617 0.0309,-0.0727 -0.91641,0 -0.0469,0.0844 -0.0934,0.15703 -0.0988,0.15391 -0.10508,0.15 -0.11171,0.14453 -0.11211,0.13164 -0.11211,0.13203 -0.11993,0.13633 -0.10546,0.0949 -0.11875,0.077 -0.13594,0.0359 -0.16992,-0.0488 -0.0961,-0.14883 -0.0219,-0.17851 0.0156,-0.17188 0.0414,-0.16758 0.0594,-0.16289 0.0723,-0.15742 0.082,-0.15234 0.0664,-0.10938 -0.92734,0 0,-0.0234 z"
         style="font-style:normal;font-variant:normal;font-weight:normal;font-stretch:normal;font-family:'Marketing Script';-inkscape-font-specification:'Marketing Script'" />
      <path
         id="path4153"
         d="m 225.92571,373.76288 0,0.0234 0.92735,0 0.023,-0.0383 0.11055,-0.15 0.12617,-0.13711 0.13984,-0.12343 0.15118,-0.10938 0.13593,-0.0785 0.14258,-0.0652 0.14961,-0.0445 0.15586,-0.0117 0.16836,0.0246 0.10391,0.11914 -0.008,0.0481 -0.0785,0.16523 -0.0816,0.16406 -0.0856,0.16172 -0.0422,0.0754 0.91641,0 0.0437,-0.10234 0.0738,-0.16563 0.0742,-0.16523 0.0742,-0.16562 0.0746,-0.16563 0.075,-0.16484 0.0758,-0.16485 0.023,-0.12461 -0.0469,-0.11562 -0.13555,-0.0566 -0.14453,-0.0312 -0.15117,-0.0266 -0.15274,0.002 -0.12812,0.0883 -0.0961,0.12773 -0.0813,0.0484 -0.0945,-0.0324 -0.14179,-0.0633 -0.14922,-0.0437 -0.15352,-0.0238 -0.15547,-0.005 -0.18281,0.0133 -0.18008,0.0332 -0.17539,0.0512 -0.17031,0.068 -0.16328,0.0824 -0.16016,0.0981 -0.15117,0.11133 -0.14062,0.12422 -0.1293,0.13633 -0.11719,0.14648 -0.10508,0.15586 -0.0926,0.16367 -0.0703,0.14297 z"
         style="font-style:normal;font-variant:normal;font-weight:normal;font-stretch:normal;font-family:'Marketing Script';-inkscape-font-specification:'Marketing Script'" />
    </g>
  </g>
</svg>
